# xmcd
#
# Track frame offsets:
#	150
#	13426
#	31716
#	54122
#	70465
#	94312
#	108477
#	135725
#	155791
#	165833
#	186288
#	206731
#	218544
#	231428
#	249860
#	263201
#	284820
#	297649
#
# Disc length: 4122 seconds
#
# Revision: 1
# Processed by: cddbd v1.5.2PL0 Copyright (c) Steve Scherf et al.
# Submitted via: audiograbber 1.83.01
#
DISCID=14101812
DTITLE=Various Artist - The Very Best of Outlaw Country CD 1
DYEAR=1900
DGENRE=
TTITLE0=Waylon Jennings - Are You Sure Hank Done It This Way
TTITLE1=The Charlie Daniels Band - Long Haired Country Boy
TTITLE2=The Allman Brothers Band - Ramblin' Man
TTITLE3=Willie Nelson - Whiskey River (Live)
TTITLE4=You Never Even Called Me By My Name - David Allan Coe
TTITLE5=Jessi Colter - Why You Been Gone So Long
TTITLE6=The Marshall Tucker Band - Can't You See
TTITLE7=4th Of July - Shooter Jennings
TTITLE8=Billy Joe Shaver - I Been To Georgia On A Fast Train
TTITLE9=Steve Earle - Copperhead Road
TTITLE10=Lynyrd Skynyrd - Gimme Three Step
TTITLE11=Tkae this Job and Shove It - Johnny Paycheck
TTITLE12=Johnny Cash - Cocaine Blues (Live)
TTITLE13=The Outlaws - Hurry Sundown
TTITLE14=Waylon Jennings and Willie Nelson - Good Hearted Woman
TTITLE15=Tanya Tucker - Texas (When I Die)
TTITLE16=Gary Stewart - Honky-Tonkin'
TTITLE17=Tompall Glaser - Put Another Log On The Fire (Male Chauvinst National 
TTITLE17=Anthem)
EXTD=
EXTT0=
EXTT1=
EXTT2=
EXTT3=
EXTT4=
EXTT5=
EXTT6=
EXTT7=
EXTT8=
EXTT9=
EXTT10=
EXTT11=
EXTT12=
EXTT13=
EXTT14=
EXTT15=
EXTT16=
EXTT17=
PLAYORDER=
